<svg xmlns="http://www.w3.org/2000/svg" version="1.1" xmlns:xlink="http://www.w3.org/1999/xlink" xmlns:svgjs="http://svgjs.com/svgjs" width="1440" height="560" preserveAspectRatio="none" viewBox="0 0 1440 560"><g mask="url(&quot;#SvgjsMask1014&quot;)" fill="none"><path d="M1344.06-19.44C1153.99-15.24 1010.03 236.81 630.91 244.66 251.79 252.51 106.82 492.99-82.24 496.66" stroke="rgba(218, 165, 32, 1)" stroke-width="2"></path><path d="M845.95-39.07C672.13-3.19 599.23 442.67 327.95 446.39 56.67 450.11-54.35 285.88-190.05 283.99" stroke="rgba(218, 165, 32, 1)" stroke-width="2"></path><path d="M1143.61-12.44C988.69-10 871.87 171.77 554.67 180.49 237.46 189.21 128.6 453.48-34.28 460.49" stroke="rgba(218, 165, 32, 1)" stroke-width="2"></path><path d="M993.41-4.1C839.1 41.04 803.34 466.57 566.77 477.11 330.21 487.65 353.45 407.11 140.14 407.11-73.18 407.11-178.41 476.88-286.5 477.11" stroke="rgba(218, 165, 32, 1)" stroke-width="2"></path><path d="M607.51-26.82C494.17 28.86 545.39 396.02 333.61 397.58 121.83 399.14-66.81 183.16-214.19 179.18" stroke="rgba(218, 165, 32, 1)" stroke-width="2"></path></g><defs><mask id="SvgjsMask1014"><rect width="1440" height="560" fill="#ffffff"></rect></mask></defs></svg>