<svg xmlns="http://www.w3.org/2000/svg" version="1.1" xmlns:xlink="http://www.w3.org/1999/xlink" xmlns:svgjs="http://svgjs.com/svgjs" width="1440" height="560" preserveAspectRatio="none" viewBox="0 0 1440 560"><g mask="url(&quot;#SvgjsMask1007&quot;)" fill="none"><path d="M613.16 614.84C747.67 592.35 791.21 278.57 1029.83 262.77 1268.45 246.97 1338.27 146.29 1446.5 145.17" stroke="rgba(218, 165, 32, 1)" stroke-width="2"></path><path d="M474.01 665.21C641.09 636.73 720.48 228.65 989.86 225.29 1259.24 221.93 1372.79 353.12 1505.71 354.09" stroke="rgba(218, 165, 32, 1)" stroke-width="2"></path><path d="M857.22 649.7C939.62 633.81 882.57 446.74 1106 424.38 1329.44 402.02 1461.8 158.88 1603.57 149.98" stroke="rgba(218, 165, 32, 1)" stroke-width="2"></path><path d="M613.04 589.33C767.77 547.05 822.05 119.55 1047.63 117.29 1273.2 115.03 1359.53 339.98 1482.21 346.89" stroke="rgba(218, 165, 32, 1)" stroke-width="2"></path><path d="M510.74 565.63C668.74 531.74 738.8 120.29 978.04 119.08 1217.28 117.87 1314.1 352.94 1445.34 359.88" stroke="rgba(218, 165, 32, 1)" stroke-width="2"></path></g><defs><mask id="SvgjsMask1007"><rect width="1440" height="560" fill="#ffffff"></rect></mask></defs></svg>